<?xml version="1.0" standalone="no"?>
<!DOCTYPE svg PUBLIC "-//W3C//DTD SVG 20010904//EN"
 "http://www.w3.org/TR/2001/REC-SVG-20010904/DTD/svg10.dtd">
<svg version="1.0" xmlns="http://www.w3.org/2000/svg"
 width="120" height="34" viewBox="0 0 1584.000000 1172.000000"
 preserveAspectRatio="xMidYMid meet">
<g transform="translate(0.000000,1172.000000) scale(0.100000,-0.100000)"
fill="#000000" stroke="none">
<path d="M8796 11209 c-54 -13 -62 -21 -84 -89 -18 -51 -18 -61 -6 -77 12 -15
15 -16 23 -3 8 12 16 9 48 -16 105 -85 121 -165 158 -814 2 -47 7 -114 10
-150 3 -36 5 -71 5 -77 -5 -53 3 -149 14 -174 4 -8 2 -27 -3 -42 -6 -15 -8
-70 -4 -129 7 -132 7 -130 2 -148 -2 -9 4 -16 19 -18 12 -2 22 -8 22 -13 0 -5
-8 -9 -17 -7 -16 3 -18 -7 -21 -80 -2 -50 2 -89 8 -97 6 -7 7 -16 3 -18 -13
-8 -15 -67 -4 -103 6 -21 5 -36 -1 -42 -13 -13 11 -72 30 -72 7 0 10 -5 7 -10
-4 -6 -14 -9 -23 -8 -13 3 -15 -6 -13 -48 1 -29 -2 -55 -8 -59 -14 -8 -14 -75
-1 -75 7 0 7 -6 1 -19 -6 -10 -10 -63 -10 -117 1 -79 4 -101 17 -111 15 -12
15 -13 -3 -11 -16 2 -21 -4 -23 -29 -4 -46 -40 -45 -88 2 -19 19 -42 35 -51
35 -10 0 -12 6 -8 19 3 11 1 22 -5 26 -5 3 -10 17 -10 29 0 28 -25 53 -35 36
-9 -15 -105 -2 -135 20 -14 9 -50 20 -80 24 -47 6 -69 2 -145 -24 -50 -17
-101 -33 -115 -37 -14 -3 -30 -10 -37 -15 -24 -19 -124 -77 -143 -83 -14 -4
-20 -2 -20 8 0 8 11 18 25 21 14 4 31 20 40 40 9 19 29 47 45 62 16 16 30 37
30 47 0 10 4 16 8 13 4 -2 25 15 47 40 22 24 44 44 51 44 24 0 47 39 41 69 -4
17 -3 32 2 35 13 9 11 64 -5 102 -23 55 -116 133 -160 134 -14 0 -29 15 -47
48 -14 27 -36 53 -49 59 -76 36 -122 56 -137 58 -9 0 -36 5 -61 9 -33 5 -73 1
-145 -14 -55 -12 -118 -25 -141 -29 -22 -4 -57 -18 -78 -30 -40 -25 -57 -23
-30 3 9 9 14 20 11 23 -4 3 -18 -9 -32 -26 -15 -17 -36 -31 -49 -31 -12 0 -38
-11 -58 -25 -41 -28 -108 -35 -108 -11 0 9 8 12 25 8 15 -2 25 0 25 7 0 6 -4
11 -9 11 -4 0 -6 11 -3 25 3 20 10 25 34 25 28 0 30 -2 24 -27 -7 -28 -6 -28
24 7 49 57 50 59 50 70 0 5 5 10 10 10 6 0 10 5 10 12 0 9 -3 9 -12 0 -7 -7
-27 -12 -45 -12 -25 0 -31 4 -27 15 7 18 34 20 34 3 1 -8 6 -5 14 5 11 15 19
16 34 8 14 -7 25 -6 41 6 17 11 26 12 34 4 14 -14 27 -14 27 -1 0 6 -8 10 -17
10 -13 0 -14 3 -5 12 7 7 12 18 12 26 0 8 11 23 25 34 30 24 32 44 5 58 -26
14 -26 40 0 40 11 0 23 6 26 14 3 7 14 11 28 9 26 -5 66 36 66 69 0 10 8 21
18 25 35 13 72 45 72 63 0 11 19 34 44 52 24 18 47 42 52 52 5 11 15 21 22 24
22 7 13 -17 -17 -44 -19 -16 -31 -38 -33 -58 -2 -21 -10 -34 -25 -41 -16 -7
-23 -18 -23 -38 0 -32 19 -33 35 -1 14 26 107 119 128 127 11 4 17 17 17 37 0
16 6 31 13 32 6 0 19 1 27 2 8 1 16 10 18 21 5 26 21 45 35 42 7 -1 13 11 15
26 3 22 6 26 16 17 10 -8 17 -4 30 14 9 14 16 30 16 36 0 11 48 34 66 31 19
-3 46 47 36 67 -13 24 -4 46 13 32 10 -8 15 -8 20 0 4 6 5 14 2 16 -3 3 3 14
13 24 11 11 16 27 13 43 -3 13 0 34 7 46 8 16 8 28 -3 49 -11 24 -11 32 5 63
24 47 14 73 -47 119 -73 54 -135 111 -135 124 -1 49 -167 105 -330 111 -59 2
-385 -41 -410 -54 -19 -10 -99 -28 -162 -36 -26 -3 -50 -10 -53 -16 -4 -5 -18
-9 -33 -9 -30 0 -119 -25 -136 -39 -14 -11 -56 -21 -114 -26 -25 -3 -53 -12
-62 -20 -9 -8 -32 -17 -50 -19 -19 -2 -36 -8 -38 -14 -1 -5 -11 -8 -21 -5 -10
3 -38 -5 -62 -16 -23 -12 -53 -21 -66 -21 -13 0 -29 -10 -39 -25 -18 -27 -50
-35 -41 -10 7 16 -12 11 -68 -19 -16 -9 -35 -16 -41 -16 -16 0 -64 -24 -64
-32 0 -5 -9 -8 -19 -8 -11 0 -32 -5 -48 -12 -15 -6 -32 -10 -37 -9 -4 1 -19
-5 -32 -14 -13 -8 -30 -15 -38 -15 -7 0 -16 -7 -20 -15 -3 -8 -11 -12 -19 -9
-16 6 -147 -53 -147 -66 0 -5 -6 -7 -14 -4 -8 3 -17 1 -21 -5 -3 -6 -14 -11
-25 -11 -10 0 -21 -7 -24 -15 -3 -9 -11 -15 -18 -14 -23 2 -58 -13 -58 -26 0
-8 -8 -11 -19 -8 -11 3 -28 -4 -40 -16 -11 -11 -27 -18 -36 -15 -10 4 -15 0
-15 -15 0 -12 5 -21 12 -21 6 0 8 -3 4 -7 -4 -5 -14 0 -21 10 -10 14 -18 16
-32 9 -76 -40 -102 -39 -121 3 -6 14 -16 25 -21 25 -15 0 -23 -18 -11 -23 6
-3 5 -4 -2 -3 -25 5 -33 34 -14 55 17 18 17 21 3 27 -9 3 -20 3 -26 0 -18 -12
-39 6 -45 39 -4 19 -20 58 -36 87 -16 29 -39 73 -50 98 -12 24 -25 47 -29 50
-4 3 -12 12 -17 21 -28 49 -326 269 -365 269 -9 0 -50 14 -90 31 -65 28 -81
31 -133 25 -83 -9 -128 -54 -73 -75 12 -5 34 -22 48 -37 45 -49 159 -207 159
-220 0 -7 13 -28 28 -46 41 -49 120 -209 128 -259 4 -24 10 -48 14 -54 12 -15
47 -141 64 -225 8 -41 25 -124 37 -185 12 -60 24 -126 26 -145 2 -19 8 -44 13
-55 5 -11 11 -47 14 -80 5 -63 13 -116 40 -255 9 -47 19 -116 21 -153 2 -38 8
-74 14 -81 5 -6 11 -21 11 -31 4 -73 7 -105 14 -146 10 -59 13 -84 24 -195 6
-50 15 -101 22 -114 7 -14 10 -38 6 -62 -5 -29 -3 -40 9 -44 11 -5 12 -10 4
-26 -8 -14 -8 -33 -1 -62 15 -56 21 -121 13 -133 -3 -5 -31 -27 -61 -48 -30
-20 -66 -48 -80 -61 -27 -24 -148 -108 -240 -164 -31 -19 -71 -47 -89 -63 -18
-15 -54 -39 -79 -54 -26 -15 -91 -56 -145 -92 -104 -70 -124 -82 -312 -180
-66 -35 -127 -69 -135 -76 -21 -17 -287 -131 -327 -140 -18 -3 -36 -11 -39
-17 -7 -10 -182 -96 -265 -128 -42 -17 -68 -20 -152 -17 -70 2 -112 9 -134 20
l-32 17 -16 -29 c-8 -17 -15 -38 -15 -48 0 -24 37 -120 60 -158 30 -48 116
-112 173 -129 29 -8 68 -27 87 -41 49 -36 89 -43 225 -40 150 4 192 9 213 27
9 8 42 20 72 27 30 8 72 22 92 32 21 11 47 19 58 19 11 0 31 6 43 14 12 8 51
21 87 30 36 9 83 25 105 36 25 13 50 18 67 15 19 -5 32 0 47 16 17 19 27 21
71 16 43 -5 60 -2 100 19 32 17 50 33 52 47 2 18 9 22 36 19 31 -2 43 10 22
23 -21 13 -9 27 17 22 18 -3 37 2 55 14 21 16 32 18 47 9 30 -15 41 -12 50 14
6 15 20 25 40 29 16 4 36 17 43 29 7 13 20 23 28 23 8 0 14 5 13 11 -1 6 9 22
23 35 19 17 27 20 36 11 18 -18 35 -15 41 7 3 13 17 21 45 26 45 7 69 28 74
65 3 22 9 25 46 28 48 4 43 18 48 -138 3 -113 7 -138 22 -166 9 -16 7 -22 -9
-32 -10 -7 -19 -19 -19 -28 0 -26 -59 -74 -90 -74 -16 0 -32 5 -35 10 -3 6
-26 10 -51 10 -41 0 -44 -2 -44 -26 0 -20 4 -24 19 -19 22 7 93 -24 88 -39 -2
-5 -16 -13 -31 -17 -35 -10 -58 -29 -52 -44 6 -16 -13 -35 -34 -35 -8 0 -31
-13 -50 -29 -19 -15 -45 -31 -57 -35 -13 -4 -23 -11 -23 -16 0 -4 -11 -11 -25
-14 -14 -4 -29 -15 -33 -26 -4 -10 -27 -33 -52 -50 -25 -17 -83 -57 -129 -88
-46 -31 -97 -67 -115 -80 -17 -12 -47 -33 -66 -46 -19 -13 -46 -35 -59 -50
-14 -14 -30 -26 -36 -26 -11 0 -63 -43 -120 -98 -16 -16 -44 -37 -61 -45 -18
-9 -46 -34 -63 -56 -18 -22 -40 -42 -49 -45 -34 -11 -59 -68 -65 -143 -5 -61
-3 -76 14 -97 10 -13 19 -29 19 -35 0 -7 13 -24 29 -40 16 -16 31 -37 33 -47
5 -26 65 -37 87 -15 9 9 27 17 41 18 67 5 110 26 110 54 0 11 12 19 32 23 26
5 36 2 49 -15 10 -14 19 -18 23 -11 4 6 14 9 24 6 13 -5 14 -4 3 4 -16 11 -6
32 15 32 8 0 13 -4 10 -9 -3 -5 6 -17 20 -26 21 -13 24 -19 13 -26 -7 -4 -10
-12 -5 -16 7 -8 36 23 36 39 0 4 -9 8 -20 8 -14 0 -20 7 -20 21 0 17 3 19 14
10 17 -14 46 -4 40 14 -3 8 -12 11 -20 8 -16 -6 -19 13 -4 22 8 5 8 11 1 19
-12 14 4 36 25 36 6 0 17 6 24 14 19 23 41 8 33 -23 -6 -23 -5 -25 10 -12 21
17 22 35 2 51 -20 17 -4 36 38 46 33 7 47 19 47 43 0 9 -4 10 -12 4 -7 -6 -26
-13 -41 -15 -21 -4 -27 -2 -25 10 2 11 17 16 50 17 34 1 52 6 61 20 9 11 19
15 27 10 10 -6 12 -1 8 19 -3 14 -1 26 3 26 5 0 9 10 9 22 0 20 1 20 19 4 17
-16 20 -16 35 -1 9 9 16 21 16 26 0 5 9 9 20 9 11 0 20 5 20 10 0 6 6 10 14
10 21 0 37 25 38 60 1 18 7 34 15 36 51 15 49 14 29 29 -26 20 -11 39 17 20
19 -13 23 -13 44 7 29 27 29 41 1 61 l-23 15 28 11 c20 8 27 17 27 36 0 17 7
28 23 34 26 10 42 -6 25 -26 -7 -8 -7 -13 0 -13 17 0 35 29 29 49 -2 11 4 32
15 48 l20 28 -6 -31 c-5 -33 8 -56 29 -48 7 3 15 -5 19 -18 9 -36 7 -41 -15
-35 -37 10 -79 -3 -79 -24 0 -24 46 -26 72 -2 10 9 21 14 24 11 11 -11 15
-296 4 -303 -7 -4 -6 -14 2 -28 7 -12 11 -26 10 -31 -11 -38 -17 -172 -8 -178
7 -5 6 -16 -6 -36 -9 -15 -14 -33 -10 -39 13 -21 2 -322 -13 -370 -2 -7 -1
-14 3 -17 11 -6 4 -362 -8 -461 -5 -44 -9 -98 -8 -120 1 -22 -1 -72 -5 -110
-9 -80 -12 -83 -100 -109 -54 -16 -62 -16 -125 0 -70 17 -172 64 -209 97 -12
10 -26 16 -32 13 -5 -4 -13 -1 -16 5 -4 5 -14 8 -23 4 -8 -3 -18 -2 -21 3 -3
5 -21 7 -39 5 l-33 -5 22 -24 c30 -32 8 -32 -48 0 -33 19 -43 21 -47 10 -3 -9
1 -14 13 -14 10 0 24 -7 31 -15 10 -11 9 -18 -3 -30 -11 -10 -18 -12 -22 -4
-5 7 -14 3 -26 -10 -11 -12 -26 -21 -34 -21 -26 0 -16 -42 18 -71 30 -27 29
-39 -3 -20 -8 6 -18 7 -22 5 -9 -6 61 -68 125 -113 51 -35 94 -53 212 -91 50
-16 108 -39 130 -50 21 -11 49 -20 62 -20 12 0 25 -5 29 -11 6 -11 44 -8 77 6
12 5 17 3 17 -8 0 -8 4 -17 10 -19 15 -5 46 -98 54 -159 4 -30 10 -59 14 -64
8 -12 48 -35 60 -35 11 0 32 46 32 70 0 25 20 27 20 3 1 -25 22 -51 38 -46 6
3 12 -2 12 -11 0 -9 -5 -16 -12 -16 -6 0 -3 -7 8 -15 11 -8 14 -15 7 -15 -18
0 -16 -30 1 -30 8 0 21 9 29 20 13 18 16 19 27 5 7 -8 21 -15 32 -15 10 0 21
-7 24 -15 4 -8 15 -15 25 -15 10 0 19 -4 19 -10 0 -5 5 -10 11 -10 8 0 10 13
6 37 -3 21 -3 32 0 26 2 -7 8 -13 13 -13 16 0 70 85 70 110 0 25 39 75 41 54
1 -5 2 -13 4 -19 1 -5 3 -18 3 -28 2 -16 4 -16 33 -1 27 13 30 20 25 44 -3 17
1 41 10 59 11 22 13 39 6 63 -6 20 -5 43 0 58 5 14 7 39 3 57 -3 18 -1 34 5
38 7 4 8 23 4 52 -4 27 -2 54 5 69 6 13 16 35 23 49 13 27 71 89 112 117 14
10 26 30 28 45 2 19 12 32 31 41 15 8 32 24 36 36 11 27 81 96 98 96 18 0 16
49 -2 56 -8 4 -22 1 -30 -6 -12 -10 -15 -10 -15 2 0 8 14 25 30 38 17 13 30
28 30 35 0 7 9 20 20 30 11 10 25 34 31 54 13 43 74 89 83 64 9 -22 8 -23 -19
-23 -24 0 -31 -15 -26 -57 1 -7 -10 -15 -24 -19 -26 -6 -34 -29 -13 -36 20 -7
100 42 97 58 -5 27 2 46 15 41 8 -3 20 1 27 9 16 19 -4 64 -28 64 -11 0 -14 3
-7 8 17 11 36 51 29 62 -3 5 12 20 34 34 21 14 41 31 44 38 4 8 6 6 6 -5 1
-10 -5 -20 -13 -23 -17 -7 -40 -59 -32 -72 11 -18 44 -2 39 19 -3 10 -1 19 5
19 5 0 15 14 22 30 7 17 21 35 31 41 11 5 19 16 19 25 0 8 8 18 18 21 20 8 57
52 57 70 0 6 4 15 8 19 10 11 9 42 -3 49 -6 3 -14 -4 -19 -17 -5 -13 -21 -35
-36 -51 -14 -15 -24 -31 -21 -36 6 -10 -53 -55 -61 -47 -4 3 -1 6 6 6 8 0 11
8 8 20 -4 15 3 27 24 42 16 12 29 27 29 33 0 6 6 23 12 37 16 34 54 42 80 16
15 -15 22 -17 34 -7 18 15 18 43 -1 59 -12 10 -16 9 -21 -4 -7 -19 -34 -21
-34 -3 0 8 9 22 20 32 14 12 18 25 14 41 -5 17 -2 24 9 24 8 0 17 3 19 8 2 4
18 19 36 34 17 15 28 30 22 33 -17 11 -11 23 20 38 36 18 53 3 21 -19 -26 -18
-28 -44 -3 -44 25 0 42 19 42 47 0 17 5 23 18 21 12 -2 17 4 17 21 0 26 16 37
41 27 13 -5 13 -8 -1 -29 -15 -23 -17 -47 -30 -297 -2 -41 -7 -93 -10 -115 -4
-22 -8 -65 -9 -95 -5 -100 -6 -110 -16 -110 -14 0 -120 -105 -120 -118 0 -5
-7 -15 -16 -23 -8 -7 -14 -22 -12 -34 4 -17 0 -21 -16 -19 -22 4 -72 -50 -230
-246 -42 -52 -100 -123 -129 -158 -57 -70 -81 -102 -156 -210 -28 -40 -51 -76
-51 -81 0 -5 -7 -14 -15 -21 -21 -18 -70 -108 -89 -168 -14 -40 -15 -59 -8
-82 8 -22 7 -31 -4 -41 -14 -12 -11 -64 5 -81 13 -15 30 9 33 45 2 21 7 37 13
37 5 0 8 -14 7 -31 -6 -49 21 -71 78 -63 l47 6 1 -38 c2 -46 13 -58 56 -61 36
-2 61 17 53 39 -5 15 25 80 59 125 13 17 24 36 24 42 0 5 10 11 22 13 13 2 24
11 26 21 3 15 -1 17 -25 12 -23 -5 -25 -4 -10 5 9 6 17 17 17 24 0 7 11 23 25
36 14 13 25 27 25 32 0 9 37 48 46 48 3 0 18 13 32 28 22 23 25 32 17 50 -5
12 -14 21 -20 21 -28 -3 -39 3 -20 11 33 14 44 11 51 -15 l6 -24 30 28 c30 28
31 51 3 51 -18 0 -31 60 -15 70 6 4 17 18 23 30 7 13 21 24 32 25 11 1 33 13
49 28 24 22 26 28 12 33 -9 3 -13 10 -10 15 3 5 10 7 15 3 5 -3 23 9 39 28 29
33 29 33 9 48 -13 11 -18 22 -13 33 9 23 28 16 32 -11 4 -23 17 -29 27 -12 3
5 12 7 19 4 22 -8 29 27 9 42 -22 16 -33 18 -33 4 0 -15 -19 -12 -36 4 -16 17
-4 29 20 20 9 -3 16 -2 16 4 0 5 -7 13 -16 16 -12 5 -13 8 -2 20 8 9 19 11 29
5 10 -5 20 -4 27 3 18 18 27 1 14 -27 -13 -29 -6 -55 15 -55 9 0 13 -6 10 -15
-4 -8 -1 -17 5 -21 7 -5 5 -12 -7 -21 -11 -7 -14 -13 -7 -13 19 0 41 -64 53
-158 12 -89 26 -128 53 -151 9 -8 16 -26 16 -40 0 -38 20 -62 60 -70 18 -3 38
-15 44 -25 19 -33 42 -52 55 -48 9 3 11 -2 7 -16 -11 -35 15 -37 41 -3 21 27
31 31 70 31 37 0 52 -6 86 -35 47 -40 107 -61 135 -46 10 5 31 37 46 70 26 53
32 60 52 55 16 -4 26 0 34 16 13 25 5 39 -12 22 -17 -17 -28 -15 -28 7 0 25
25 44 49 36 17 -5 21 0 26 27 3 18 5 51 4 73 -1 48 -1 100 2 208 1 27 -3 53
-9 59 -6 6 -7 19 -2 33 5 12 4 28 -1 36 -11 17 -11 77 1 104 5 13 3 26 -6 36
-12 13 -12 23 2 63 15 44 15 50 -1 79 -18 33 -18 121 -1 160 6 12 4 17 -8 17
-18 0 -22 25 -6 35 7 5 8 11 1 19 -5 6 -15 32 -21 58 -10 38 -9 52 3 80 9 18
15 49 13 68 -3 41 9 61 32 53 14 -4 15 -3 2 6 -21 15 -3 27 20 13 11 -7 20 -8
20 -3 0 6 -5 13 -11 16 -6 4 -7 19 -4 36 5 22 3 29 -9 29 -9 0 -16 -4 -16 -10
0 -5 -8 -10 -17 -11 -11 0 -13 -3 -5 -6 20 -8 13 -25 -8 -18 -11 4 -20 2 -20
-4 0 -22 -15 -10 -30 22 -14 32 -18 112 -6 124 8 9 7 79 -3 131 -7 34 -6 42 5
38 9 -4 11 4 7 28 -5 32 -4 33 21 29 29 -6 33 7 13 47 -11 21 -9 27 9 47 12
13 28 23 37 23 8 0 18 12 21 26 6 21 9 24 21 14 18 -15 19 -3 5 34 -10 27 -40
27 -40 0 0 -8 -7 -17 -15 -20 -14 -6 -13 -8 1 -19 13 -9 14 -14 4 -20 -8 -5
-18 -1 -26 10 -12 17 -15 16 -45 -16 l-31 -33 -19 23 c-20 25 -26 95 -9 106
21 13 9 24 -19 19 -28 -6 -30 -5 -36 39 -6 38 -4 49 14 68 26 28 27 39 2 39
-15 0 -19 10 -24 58 -4 31 -10 67 -13 80 -4 12 -2 22 4 22 6 0 13 -8 15 -17 4
-17 5 -17 6 0 0 9 6 17 11 17 6 0 10 5 10 10 0 6 -7 10 -15 10 -18 0 -20 21
-3 38 9 9 9 12 0 12 -7 0 -12 9 -12 20 0 11 7 20 15 20 20 0 19 12 -3 41 -29
39 -14 141 23 155 10 4 13 13 10 25 -6 18 18 62 52 97 7 7 13 22 13 32 0 20
27 35 32 18 9 -25 27 4 21 32 -5 30 4 38 23 21 5 -5 20 -12 34 -16 22 -7 23
-6 11 9 -10 12 -11 19 -1 30 6 8 17 13 24 10 15 -6 29 23 19 38 -4 8 6 9 30 5
27 -4 37 -2 37 7 0 15 41 29 50 17 3 -4 13 -10 22 -14 13 -5 16 0 16 24 -1 16
-5 29 -10 29 -5 0 -6 5 -2 11 3 6 17 8 30 5 17 -5 24 -2 24 8 0 8 -6 17 -12
19 -14 6 25 11 55 7 10 -1 25 4 33 10 7 7 25 10 39 8 14 -3 33 1 42 8 16 12
15 13 -14 14 -23 0 -33 5 -33 15 0 17 26 20 35 4 5 -7 15 -5 30 5 15 10 26 12
30 6 3 -6 -1 -10 -9 -10 -9 0 -16 -4 -16 -10 0 -5 11 -10 24 -10 14 0 27 -4
30 -9 8 -13 54 -1 61 16 3 9 3 18 0 21 -3 3 -5 0 -5 -7 0 -8 -7 -10 -20 -6
-11 4 -20 2 -20 -4 0 -6 -6 -11 -12 -11 -7 0 0 12 16 26 17 15 37 24 47 21 11
-3 19 -1 19 3 0 11 44 56 62 64 7 3 -5 3 -27 0 -22 -4 -45 -13 -52 -21 -17
-22 -62 -43 -68 -33 -3 5 4 14 15 20 24 13 26 30 4 30 -8 0 -12 5 -9 11 4 5
19 9 33 8 15 -1 37 -1 50 -1 19 2 21 5 12 21 -11 22 -13 41 -2 26 4 -6 19 -18
34 -28 28 -17 69 -15 94 5 7 5 16 2 24 -7 16 -19 31 -19 24 0 -4 8 -1 15 5 15
6 0 11 5 11 10 0 6 -7 10 -15 10 -8 0 -15 -5 -15 -12 0 -6 -2 -9 -5 -6 -3 3
-3 13 1 22 8 20 44 21 44 2 0 -24 21 -30 38 -12 15 15 15 18 2 26 -12 8 -11
13 7 39 15 19 19 31 11 33 -9 3 -9 6 0 12 7 4 12 2 12 -3 0 -23 38 -9 78 27
32 29 40 43 35 60 -3 13 -1 22 6 22 6 0 11 -9 11 -20 0 -11 5 -20 10 -20 6 0
9 10 8 23 -2 12 2 24 7 27 6 3 10 -12 10 -35 0 -32 -3 -39 -17 -37 -21 3 -29
-10 -17 -28 7 -13 10 -13 18 -2 6 10 11 5 20 -19 16 -45 14 -79 -4 -79 -21 0
-19 -27 3 -39 16 -10 16 -10 0 -11 -25 0 -31 -16 -17 -54 11 -29 10 -38 -4
-60 -19 -28 -22 -57 -7 -72 6 -6 6 -15 0 -24 -8 -13 -10 -12 -10 3 0 9 -4 17
-9 17 -5 0 -8 -28 -7 -62 1 -36 -4 -81 -13 -104 -9 -25 -11 -49 -6 -60 12 -29
11 -47 -3 -71 -18 -28 -24 -81 -12 -103 6 -12 5 -23 -5 -36 -9 -12 -14 -43
-15 -81 0 -34 -5 -65 -11 -68 -6 -4 -10 -21 -9 -39 1 -17 1 -33 0 -36 -7 -24
-5 -86 3 -92 8 -4 5 -13 -6 -26 -11 -12 -19 -41 -22 -78 -6 -75 -22 -180 -29
-192 -3 -5 -25 -15 -50 -21 -35 -8 -45 -16 -50 -37 -6 -21 -11 -25 -32 -21
-18 3 -24 1 -20 -9 3 -8 1 -14 -4 -14 -6 0 -10 -9 -10 -20 0 -25 16 -26 29 -2
6 9 11 13 11 8 0 -5 6 -3 14 3 8 6 18 11 22 10 13 -3 64 23 64 32 0 4 -4 9
-10 11 -5 2 -6 9 -2 15 7 10 12 10 27 -1 19 -13 19 -16 3 -49 -11 -24 -13 -38
-6 -45 7 -7 7 -28 -2 -69 -11 -56 -24 -183 -33 -328 -2 -38 -9 -119 -16 -180
-14 -131 -19 -177 -29 -270 -8 -72 -17 -99 -32 -90 -12 8 -22 -27 -10 -39 13
-13 13 -106 0 -106 -5 0 -10 -9 -10 -20 0 -11 4 -20 8 -20 5 0 9 -78 10 -172
2 -155 4 -176 22 -200 11 -15 20 -43 20 -62 0 -72 41 -111 93 -90 12 5 39 8
60 6 35 -3 37 -5 37 -37 0 -27 6 -37 28 -49 15 -8 36 -23 46 -35 15 -16 27
-20 50 -15 23 4 39 0 58 -15 32 -25 53 -19 67 20 12 34 26 38 34 9 7 -28 37
-26 37 3 0 12 7 30 14 39 7 10 12 36 10 60 -4 52 3 63 41 63 41 0 54 30 44 98
-5 28 -10 162 -11 297 -2 135 -8 252 -13 260 -5 8 -8 23 -7 33 5 26 -15 46
-38 40 -15 -4 -20 0 -19 13 1 25 17 73 18 57 1 -7 5 -13 11 -13 15 0 29 35 23
58 -4 18 -9 20 -24 11 -25 -13 -34 8 -26 64 4 26 1 51 -7 66 -10 17 -11 34 -5
55 5 17 6 45 3 62 -3 17 -1 73 5 124 7 57 8 96 2 104 -9 10 -15 46 -12 74 1 6
8 12 16 12 24 0 23 35 -2 88 -13 27 -13 37 -3 62 10 24 15 28 26 19 18 -15 20
11 2 29 -9 9 -9 12 0 12 7 0 12 7 12 15 0 8 -3 15 -8 15 -4 0 -6 39 -5 87 1
74 5 89 22 102 15 12 18 20 11 31 -15 23 -12 50 5 50 8 0 15 9 15 20 0 11 -4
20 -10 20 -5 0 -10 7 -10 15 0 11 11 15 36 15 29 0 35 -3 30 -16 -5 -12 -1
-14 17 -9 47 14 77 30 77 42 0 9 -9 8 -34 -2 -19 -8 -37 -11 -40 -7 -8 14 5
52 18 51 26 -3 36 2 36 20 0 28 -11 32 -56 16 -27 -9 -43 -10 -51 -3 -10 8
-13 5 -13 -11 0 -11 -5 -21 -11 -21 -7 0 -8 7 -4 18 11 30 16 152 5 152 -6 0
-10 -6 -10 -12 0 -7 -5 -5 -11 4 -14 25 -1 88 17 81 19 -7 38 43 24 65 -8 14
-9 12 -10 -10 0 -16 -4 -28 -10 -28 -5 0 -10 10 -10 21 0 22 -25 48 -47 49
-21 0 -15 -31 7 -37 15 -4 18 -9 10 -18 -6 -7 -10 -17 -9 -21 4 -21 -2 -32
-19 -36 -15 -4 -18 -14 -17 -44 1 -22 -3 -45 -8 -51 -14 -18 -57 -16 -57 2 0
9 9 15 25 15 22 0 25 4 25 35 0 19 -4 35 -10 35 -5 0 -10 -5 -10 -11 0 -8 -5
-7 -16 2 -10 8 -12 15 -5 17 6 2 9 7 6 12 -3 5 0 21 7 35 11 25 10 29 -17 51
l-30 24 30 1 c17 1 35 3 40 4 6 2 16 3 23 4 6 0 12 7 12 15 0 8 -8 13 -17 12
-13 -1 -19 7 -21 27 -3 23 0 27 21 27 20 0 24 5 24 30 0 17 -4 30 -9 30 -4 0
-8 -9 -8 -20 0 -29 -17 -25 -23 6 -3 19 1 28 17 34 17 7 18 9 4 9 -13 1 -18 9
-18 32 0 23 4 30 15 26 22 -9 30 14 10 29 -19 14 -14 29 8 29 14 0 17 7 16 38
0 12 -3 16 -6 10 -2 -7 -11 -13 -18 -13 -10 0 -13 11 -11 35 4 46 11 52 35 31
19 -18 20 -17 19 23 0 34 -3 39 -14 30 -12 -9 -14 -4 -15 27 -3 74 3 119 17
134 12 12 14 10 14 -18 0 -18 5 -32 10 -32 16 0 12 60 -4 66 -8 3 -19 18 -24
34 -8 22 -6 34 9 59 10 17 19 40 19 51 0 13 5 18 15 14 8 -4 15 -1 15 5 0 6
-7 11 -16 11 -10 0 -14 6 -11 15 4 8 1 17 -4 21 -6 4 -2 16 12 30 12 13 17 24
11 24 -7 0 -12 -5 -12 -12 0 -9 -3 -9 -12 0 -14 14 8 46 28 38 14 -5 24 14 24
46 0 12 3 18 7 15 6 -7 10 -30 12 -68 1 -9 12 -20 26 -23 23 -6 25 -10 25 -72
0 -44 4 -63 11 -59 6 5 9 31 6 71 -3 35 -1 67 4 70 5 3 9 15 9 26 0 20 -1 21
-20 3 -11 -10 -23 -16 -26 -13 -3 3 5 15 17 27 13 12 17 21 11 21 -7 0 -12 5
-12 10 0 6 16 10 35 10 30 0 35 3 35 23 -1 21 -1 22 -15 3 -15 -19 -15 -19
-15 5 0 16 10 29 31 42 20 11 29 22 25 32 -3 9 0 15 8 15 8 0 17 -7 20 -16 5
-13 9 -14 21 -4 8 7 15 19 15 27 0 8 5 11 11 7 8 -4 8 -9 0 -17 -6 -6 -11 -17
-11 -24 0 -26 16 -12 37 31 18 36 26 43 42 39 12 -3 28 -2 37 1 13 5 14 9 4
21 -18 22 -7 28 51 29 41 1 49 4 46 17 -2 9 4 27 14 40 14 19 20 22 30 12 7
-7 21 -13 31 -13 15 0 17 3 8 19 -13 26 -13 31 4 31 7 0 21 -11 30 -25 9 -14
12 -25 6 -25 -5 0 -10 -4 -10 -10 0 -5 9 -10 21 -10 15 0 19 4 15 16 -8 21 9
51 34 59 12 4 20 15 20 28 0 15 3 18 11 10 15 -15 -5 -51 -34 -63 l-22 -9 22
0 c12 -1 28 -3 35 -6 8 -3 19 4 27 17 11 22 58 44 107 52 28 4 45 16 39 26 -6
9 18 20 46 20 12 0 23 10 29 26 8 19 16 25 30 21 11 -3 26 3 36 14 9 10 28 19
41 19 29 0 57 14 84 41 15 15 24 17 39 9 27 -14 39 -5 33 23 -4 20 -3 20 9 5
19 -23 83 -8 115 26 13 15 54 42 91 62 37 19 81 45 99 57 71 50 148 92 168 92
13 0 21 8 23 22 2 12 9 20 15 17 17 -6 57 32 57 54 0 10 11 33 25 52 28 38 26
59 -12 104 -17 20 -21 32 -14 39 6 6 11 28 11 49 0 35 -3 39 -49 62 -26 14
-60 39 -74 56 -14 16 -35 30 -46 30 -11 0 -23 5 -26 10 -3 6 -2 10 3 10 21 0
21 32 -1 55 -25 27 -77 44 -77 25 0 -6 -17 5 -37 24 -27 25 -41 32 -50 25 -6
-6 -9 -17 -6 -26 5 -12 0 -14 -23 -9 -26 6 -129 -2 -294 -21 -86 -10 -292 -4
-318 9 -19 10 -27 8 -50 -9 -21 -15 -33 -18 -51 -11 -16 5 -29 4 -38 -4 -13
-10 -12 -14 4 -26 17 -13 16 -14 -7 -9 -19 5 -29 1 -38 -14 -7 -11 -17 -17
-22 -14 -14 8 -24 -15 -11 -28 17 -17 13 -34 -11 -42 -22 -7 -22 -8 -3 -12 11
-2 39 -19 62 -37 33 -26 39 -36 30 -45 -9 -9 -3 -11 31 -5 36 6 42 4 42 -11 0
-10 -7 -27 -17 -37 -18 -20 -10 -39 9 -20 18 18 28 15 28 -9 0 -14 5 -19 14
-16 8 3 17 -1 20 -9 6 -16 42 -19 51 -4 10 16 26 11 23 -7 -2 -11 3 -18 12
-18 31 -1 79 -27 73 -41 -4 -12 -92 -89 -163 -143 -14 -11 -57 -45 -96 -78
-39 -32 -93 -74 -119 -93 -26 -19 -66 -50 -89 -67 -22 -18 -60 -44 -83 -59
-24 -14 -43 -30 -43 -34 0 -5 -28 -24 -63 -43 -34 -20 -71 -45 -81 -56 -24
-26 -36 -27 -36 -1 0 11 -4 20 -10 20 -5 0 -10 -11 -10 -25 0 -22 -3 -25 -25
-19 -20 5 -25 2 -25 -13 0 -11 -10 -29 -23 -41 l-23 -22 -23 26 c-18 21 -20
28 -10 35 12 7 12 12 1 29 -9 15 -10 26 -1 41 8 17 7 23 -7 33 -17 13 -16 15
4 41 12 15 22 26 23 24 0 -2 2 -14 3 -26 3 -24 16 -44 16 -25 0 7 3 12 8 12
10 0 32 -50 32 -72 0 -10 4 -18 9 -18 9 0 22 104 31 240 l3 45 7 -35 c3 -19 4
-59 2 -87 -3 -33 -1 -53 6 -53 10 0 20 157 13 218 -3 29 -6 32 -36 32 -29 0
-33 -3 -31 -25 0 -14 3 -25 7 -25 3 0 6 -38 6 -85 1 -80 0 -85 -18 -80 -13 4
-19 2 -19 -9 0 -9 8 -16 18 -17 14 0 14 -2 -3 -8 -27 -11 -37 -4 -33 27 2 14
-3 27 -9 29 -7 3 -13 -4 -14 -14 0 -13 -2 -14 -6 -4 -3 8 2 20 11 26 15 11 15
13 1 19 -8 3 -15 13 -15 23 0 14 2 15 9 4 9 -15 31 -7 31 11 0 6 -8 17 -17 24
-17 12 -16 15 12 38 29 24 29 25 8 26 -25 0 -31 15 -10 23 8 3 7 9 -6 19 -17
13 -20 25 -14 80 2 30 17 51 17 25 0 -10 4 -17 10 -17 5 0 9 25 8 55 -1 52
-10 70 -21 43 -6 -13 -11 45 -7 72 2 16 29 50 39 50 3 0 15 -7 25 -15 18 -14
18 -16 3 -33 -21 -23 -22 -62 -2 -62 8 0 15 -9 15 -20 0 -11 -7 -20 -15 -20
-13 0 -13 -3 -3 -20 19 -31 35 -24 40 17 3 26 -1 42 -13 54 -16 16 -16 17 7
22 16 3 24 0 24 -9 0 -8 4 -14 9 -14 5 0 9 32 10 70 0 44 -3 69 -9 65 -6 -3
-10 -26 -10 -51 0 -25 -4 -43 -9 -40 -12 8 -14 147 -2 176 10 24 10 25 10 3 1
-35 21 -27 21 8 0 24 -4 30 -15 25 -10 -3 -15 1 -15 14 0 10 -5 22 -10 25 -12
7 -21 -14 -24 -50 0 -14 -7 -25 -13 -25 -7 0 -13 -5 -13 -10 0 -6 8 -10 17 -8
10 2 19 -4 21 -14 2 -13 -3 -18 -17 -18 -13 0 -21 -6 -21 -16 0 -10 6 -14 15
-10 10 4 15 -1 15 -14 0 -24 -8 -25 -39 -4 -19 14 -25 14 -32 3 -6 -10 -9 -6
-9 14 0 19 5 27 18 27 15 1 15 2 -2 15 -17 13 -18 15 -3 15 22 0 23 46 1 54
-15 6 -15 9 5 29 26 29 27 41 1 34 -17 -4 -20 0 -20 25 0 26 2 29 15 18 12
-10 15 -10 15 3 0 9 8 21 18 26 9 6 11 11 5 11 -7 0 -13 5 -13 12 0 6 -10 23
-22 36 -13 14 -17 22 -10 18 9 -5 12 -3 11 5 -1 8 4 27 11 42 10 21 11 33 3
45 -9 16 -7 82 4 82 24 0 44 -62 23 -75 -5 -3 -10 -22 -10 -41 0 -28 4 -34 21
-34 16 0 19 -3 11 -13 -6 -7 -9 -33 -6 -59 4 -40 3 -46 -16 -51 -16 -4 -21
-12 -18 -29 2 -19 10 -24 41 -26 20 -2 37 -7 37 -13 0 -5 5 -9 10 -9 6 0 10
18 10 40 0 22 -4 40 -10 40 -5 0 -10 -7 -10 -15 0 -8 -7 -15 -16 -15 -12 0
-14 3 -6 13 7 8 9 29 5 50 -4 24 -2 37 6 37 6 0 11 -13 11 -30 0 -16 5 -30 10
-30 6 0 10 10 10 23 0 12 3 31 5 42 6 24 -13 57 -22 38 -10 -26 -22 -12 -19
24 1 27 7 39 19 41 16 3 17 18 15 165 -3 156 -4 162 -25 173 -25 12 -20 24 9
24 18 0 20 9 21 85 1 17 -2 45 -6 63 -4 18 -3 31 2 28 13 -8 7 62 -7 76 -19
19 -14 36 10 40 21 3 21 3 3 22 -25 24 -34 112 -12 103 23 -9 32 25 11 40 -12
9 -18 29 -19 65 -1 29 -5 60 -9 69 -4 9 -1 23 6 30 21 23 18 77 -4 83 -11 2
-17 9 -14 15 4 6 13 8 21 4 23 -8 18 15 -5 27 -17 9 -19 17 -13 53 3 23 6 58
5 77 -7 138 -21 223 -41 243 -6 6 -11 24 -11 41 0 80 -75 232 -110 223 -13 -3
-24 8 -41 45 -12 27 -46 70 -73 97 -48 44 -56 48 -116 54 -36 3 -78 8 -95 11
-16 3 -48 0 -69 -5z m-2147 -798 c-19 -15 -21 -22 -12 -32 6 -6 9 -18 6 -25
-6 -17 32 -20 42 -3 4 6 13 8 21 5 8 -3 24 4 35 15 11 11 27 18 34 15 8 -3 16
-2 19 2 2 4 22 6 44 4 39 -4 39 -5 22 -22 -15 -15 -25 -17 -56 -10 -42 10 -49
8 -41 -13 12 -31 66 -29 257 12 52 11 103 20 115 20 11 0 49 5 83 11 60 11 65
10 79 -9 18 -27 48 -27 66 0 16 22 40 17 67 -15 17 -22 42 -20 74 5 34 27 62
22 58 -11 -4 -33 -47 -112 -93 -174 -21 -27 -35 -54 -32 -59 3 -5 -11 -22 -30
-38 -20 -16 -39 -39 -43 -51 -6 -22 -48 -79 -116 -161 -32 -37 -38 -50 -29
-61 12 -14 1 -29 -24 -32 -5 0 -16 -2 -22 -2 -7 -1 -13 -9 -13 -17 0 -8 -13
-24 -30 -36 -16 -12 -32 -35 -35 -51 -4 -15 -11 -28 -17 -28 -18 0 -63 -56
-60 -74 2 -11 -4 -19 -17 -23 -12 -3 -24 -16 -27 -29 -3 -13 -11 -21 -19 -18
-7 3 -19 -2 -26 -11 -8 -9 -24 -28 -36 -41 -13 -14 -23 -31 -23 -39 0 -8 -5
-15 -11 -15 -6 0 -9 -6 -6 -14 4 -10 -2 -16 -21 -18 -16 -2 -31 -12 -38 -27
-7 -13 -16 -26 -21 -30 -4 -3 -17 -23 -28 -43 -11 -21 -28 -38 -39 -40 -11 -2
-25 -13 -31 -25 -6 -12 -24 -34 -39 -49 -15 -15 -25 -33 -22 -41 3 -8 -2 -13
-13 -13 -20 0 -71 -53 -71 -74 0 -20 -74 -56 -114 -56 -20 0 -71 -9 -112 -20
-42 -12 -95 -20 -118 -20 -82 1 -181 -6 -194 -13 -7 -5 -40 -9 -74 -11 -37 -1
-63 -7 -66 -14 -5 -16 -39 -15 -46 1 -3 9 -8 8 -18 -5 -15 -18 -46 -9 -34 10
9 15 -14 26 -27 13 -6 -6 -15 -11 -19 -11 -14 0 -9 27 7 40 10 9 15 9 15 1 0
-6 5 -11 10 -11 6 0 9 16 6 38 -3 20 -5 40 -5 45 -1 4 -10 16 -22 28 -15 15
-18 24 -9 33 5 8 8 21 4 30 -4 10 0 18 10 22 23 9 30 -1 16 -25 -12 -23 -10
-24 14 -15 10 4 16 18 16 40 0 30 -3 34 -25 34 -21 0 -25 5 -25 30 0 23 4 28
16 23 13 -5 14 0 8 33 -3 22 -10 43 -15 48 -5 5 -1 14 8 21 11 8 14 20 9 38
-8 32 -29 35 -49 7 -25 -36 -26 -9 -1 37 28 50 26 70 -8 75 -27 4 -38 37 -11
34 14 -1 17 7 17 42 1 23 -4 42 -9 41 -6 0 -9 -14 -7 -30 2 -26 0 -30 -18 -24
-15 5 -20 2 -20 -11 0 -14 -3 -15 -12 -6 -9 9 -10 15 -2 20 7 4 15 31 19 60 4
29 14 59 22 68 9 8 13 18 9 21 -3 4 -12 1 -18 -5 -18 -18 -28 -14 -28 12 0 16
7 26 21 29 15 4 20 12 17 28 -4 30 -26 36 -30 8 -6 -40 -28 -34 -28 6 0 35 -2
37 -26 31 -19 -5 -25 -3 -22 6 3 7 12 13 22 13 9 0 21 7 26 15 8 12 10 10 10
-8 0 -15 5 -22 13 -19 20 6 15 52 -5 51 -11 -1 -18 5 -18 17 0 10 -9 27 -20
37 l-20 19 22 41 c24 43 20 70 -12 80 -8 3 -10 0 -5 -9 11 -17 16 -59 7 -59
-10 0 -32 50 -32 71 0 10 -9 24 -20 32 -19 13 -19 15 -4 21 10 4 20 2 24 -4 9
-15 74 -32 123 -34 25 -1 36 -5 32 -13 -2 -8 4 -13 17 -13 16 0 18 3 9 13 -8
11 -3 17 25 30 19 9 43 17 54 17 10 0 26 10 34 21 14 21 18 21 72 11 31 -7 61
-9 67 -5 5 3 26 7 45 9 39 3 70 24 35 24 -12 0 -25 5 -28 10 -3 6 -14 10 -23
10 -23 0 -45 47 -26 54 7 3 18 -2 23 -11 7 -14 12 -15 25 -4 9 8 26 10 46 6
25 -5 29 -4 24 9 -8 21 45 43 58 24 4 -7 8 -17 8 -22 0 -6 5 -5 12 2 7 7 22
12 35 12 24 0 31 15 11 23 -7 2 -11 7 -8 10 10 11 40 -21 34 -37 -3 -9 -10
-13 -15 -10 -6 3 -21 -1 -34 -10 -13 -9 -32 -16 -42 -16 -10 0 -28 -7 -40 -15
-14 -10 -24 -12 -28 -5 -7 12 -35 13 -35 2 0 -5 11 -14 24 -22 21 -11 28 -10
54 9 17 11 36 21 44 21 21 0 97 29 124 47 l25 16 -35 16 c-33 16 -34 18 -16
29 28 17 41 15 38 -5 -2 -12 3 -18 17 -18 22 0 39 -20 30 -34 -3 -5 -1 -12 5
-16 5 -3 10 1 10 9 0 18 16 22 22 5 4 -12 38 -1 38 12 0 5 -12 9 -27 9 -24 1
-25 2 -10 11 24 14 21 27 -8 41 -25 11 -25 28 1 28 8 0 14 -7 14 -15 0 -8 6
-15 14 -15 7 0 19 -7 26 -15 9 -11 16 -13 23 -6 7 7 6 15 -2 24 -9 12 -8 16 4
21 9 3 15 0 15 -9 0 -8 6 -15 13 -15 8 0 8 -3 -2 -9 -12 -8 -12 -12 -2 -25 23
-27 28 -18 28 47 0 50 3 63 16 65 20 4 23 -24 5 -30 -10 -4 -8 -14 7 -41 21
-40 41 -50 30 -16 -5 16 -3 20 11 17 14 -2 18 4 20 32 1 19 2 43 3 53 1 11 9
17 27 17 l26 0 -23 -19z m695 -1669 c10 -17 -16 -86 -40 -105 -13 -10 -22 -23
-19 -28 10 -14 -8 -34 -31 -34 -20 0 -144 -132 -144 -154 0 -6 -10 -15 -22
-22 -32 -16 -98 -81 -98 -95 0 -7 -7 -14 -15 -18 -8 -3 -15 -15 -15 -26 0 -11
-7 -20 -15 -20 -8 0 -15 -4 -15 -9 0 -5 -9 -13 -21 -16 -12 -4 -18 -12 -15
-21 4 -9 -2 -14 -15 -14 -13 0 -23 -8 -26 -21 -3 -12 -11 -18 -19 -15 -8 3
-20 -7 -29 -24 -9 -17 -27 -37 -40 -46 -14 -9 -25 -23 -25 -30 0 -8 -7 -14
-16 -14 -10 0 -14 -6 -11 -14 4 -10 1 -13 -9 -9 -8 3 -31 -12 -56 -38 -32 -33
-39 -45 -27 -47 21 -4 22 -52 2 -52 -10 0 -12 6 -8 20 7 21 -1 25 -24 11 -7
-5 -11 -13 -7 -19 3 -5 -9 -17 -27 -25 -17 -9 -41 -27 -51 -41 -10 -15 -27
-26 -37 -26 -23 0 -24 -8 -3 -31 20 -22 1 -35 -21 -13 -15 16 -19 14 -51 -17
-19 -19 -34 -43 -34 -56 0 -18 -6 -23 -24 -23 -16 0 -32 -11 -46 -30 -11 -16
-34 -37 -50 -47 -17 -9 -32 -25 -35 -35 -3 -9 -11 -19 -18 -21 -7 -2 -1 -2 11
0 16 3 23 0 20 -9 -3 -7 -19 -14 -36 -16 -26 -3 -33 -9 -40 -35 -8 -30 -16
-34 -52 -26 -10 3 -16 -5 -18 -26 -3 -29 -5 -31 -37 -27 -22 3 -35 0 -35 -7 0
-6 -5 -11 -10 -11 -6 0 -10 6 -8 13 2 6 -2 14 -7 16 -6 2 -9 -10 -7 -28 3 -23
-1 -31 -12 -31 -10 0 -13 6 -10 15 4 8 2 15 -2 15 -9 0 -26 -35 -38 -76 -4
-12 -18 -26 -32 -32 -33 -16 -44 -15 -44 3 0 10 10 15 30 15 36 0 37 6 8 30
-13 10 -20 22 -16 26 4 4 14 1 23 -6 12 -10 15 -10 15 3 0 16 -52 33 -69 23
-9 -6 -22 40 -13 49 11 11 54 5 49 -7 -2 -7 -11 -12 -21 -10 -9 2 -16 -2 -16
-8 0 -6 12 -10 27 -8 22 2 28 8 27 28 0 15 -5 25 -13 25 -8 0 -16 6 -18 13 -3
7 4 12 16 12 16 0 21 6 21 26 0 23 3 25 25 20 19 -5 25 -2 25 9 0 11 -6 15
-19 10 -14 -4 -21 1 -29 25 -6 17 -18 30 -28 30 -10 0 -14 -5 -10 -15 3 -9 0
-15 -9 -15 -25 0 -14 61 11 62 37 2 63 18 66 40 2 17 9 22 26 21 16 -2 22 2
22 17 0 11 9 25 20 32 11 7 20 18 20 24 0 12 48 38 94 52 17 4 36 21 45 38 14
25 21 29 54 26 35 -3 39 0 50 27 10 27 17 31 47 31 33 0 144 57 210 108 14 10
66 46 115 80 139 95 226 183 230 234 0 3 3 10 8 14 4 4 7 17 7 30 0 12 14 36
30 54 17 18 30 38 30 46 0 8 4 14 9 14 5 0 13 9 16 20 3 11 13 20 21 20 8 0
14 5 14 10 0 13 -17 13 -25 0 -5 -8 -11 -7 -21 1 -13 10 -11 16 12 40 27 28
64 44 64 28 0 -16 21 -9 43 14 12 13 29 22 37 20 13 -4 13 -3 1 5 -12 9 -12
13 -2 26 16 19 34 20 60 4 16 -9 30 -6 86 22 37 18 69 39 72 47 6 15 29 18 37
5z m1564 -539 c5 -10 6 -31 2 -48 -9 -47 0 -82 23 -93 22 -10 22 -10 -4 -22
-20 -9 -26 -19 -26 -48 -2 -143 -29 -242 -64 -242 -11 0 -82 -51 -87 -62 -2
-4 -19 -15 -39 -24 -19 -9 -47 -29 -62 -44 -15 -15 -37 -30 -49 -34 -12 -4
-22 -14 -22 -22 0 -8 -4 -13 -9 -9 -10 5 -68 -28 -131 -77 -42 -32 -99 -66
-122 -74 -10 -4 -18 -10 -18 -15 0 -5 -5 -9 -12 -9 -6 0 -26 -11 -44 -25 -18
-14 -37 -25 -43 -25 -6 0 -16 -9 -23 -20 -7 -11 -19 -20 -26 -20 -7 0 -18 -5
-25 -10 -20 -18 -120 -80 -150 -93 -16 -7 -25 -18 -22 -25 3 -8 -2 -13 -13
-11 -21 2 -82 -22 -82 -33 0 -4 -4 -8 -10 -8 -17 0 14 56 47 84 22 18 30 32
26 46 -5 19 -3 19 22 10 32 -12 55 1 55 31 0 10 5 21 10 24 8 5 8 11 0 20 -17
21 3 25 39 8 40 -20 66 -8 66 28 0 13 6 24 13 25 6 1 16 2 21 3 6 0 16 13 23
29 7 15 29 35 48 44 19 10 42 27 52 38 9 11 24 20 33 20 13 0 15 6 10 31 -7
30 -6 31 19 25 28 -7 34 -2 86 67 16 21 49 52 74 68 24 16 63 54 86 84 23 30
46 55 51 55 5 0 9 7 9 15 0 8 14 30 31 50 18 20 29 38 26 41 -8 9 48 54 67 54
8 0 21 10 27 23 7 12 25 38 40 58 16 20 29 46 29 57 0 29 18 72 29 72 6 0 14
-8 19 -17z m-1048 -173 c0 -5 7 -10 15 -10 22 0 19 -8 -19 -54 -18 -23 -40
-55 -49 -72 -9 -17 -27 -39 -41 -48 -15 -9 -26 -23 -26 -31 0 -9 -14 -24 -31
-34 -17 -11 -60 -51 -96 -90 -35 -39 -70 -71 -76 -71 -7 0 -28 -15 -47 -35
-19 -19 -50 -49 -68 -67 -19 -18 -41 -41 -50 -51 -10 -11 -29 -25 -44 -33 -27
-14 -29 -13 -78 36 -28 28 -55 48 -60 45 -6 -3 -7 1 -4 10 4 11 2 14 -9 9 -11
-4 -16 2 -19 18 -2 13 -9 22 -17 20 -7 -1 -15 6 -18 17 -2 10 -13 23 -24 27
-16 8 -17 12 -6 34 10 19 19 24 39 22 39 -5 158 61 158 87 0 6 8 11 18 11 31
0 72 24 69 40 -1 8 -10 14 -20 12 -22 -4 -22 12 0 38 23 26 31 25 26 -3 -3
-17 2 -26 19 -34 32 -15 54 3 63 49 7 36 7 36 26 17 10 -10 25 -19 32 -19 7 0
47 22 88 50 42 28 85 50 101 50 16 0 34 10 46 25 22 28 52 33 52 9 0 -8 5 -12
10 -9 6 4 7 11 4 17 -4 6 0 14 7 19 19 12 29 11 29 -1z m-1010 -478 c0 -17
-36 -40 -72 -46 -21 -4 -43 -15 -50 -25 -7 -9 -28 -24 -46 -32 -23 -10 -32
-20 -30 -34 5 -30 36 -31 48 -1 6 16 15 24 24 20 8 -3 28 2 45 10 37 20 41 20
41 1 0 -8 4 -15 9 -15 14 0 23 18 13 24 -5 3 -7 16 -5 29 7 37 60 33 96 -6 15
-17 27 -34 27 -39 0 -4 14 -27 31 -51 28 -40 42 -77 56 -149 4 -22 -1 -30 -36
-54 -23 -14 -41 -31 -41 -35 0 -5 -6 -9 -13 -9 -7 0 -24 -11 -37 -23 -14 -13
-37 -27 -50 -30 -14 -4 -47 -25 -75 -47 -27 -22 -65 -47 -84 -56 -19 -9 -49
-26 -65 -39 -17 -12 -41 -26 -53 -30 -13 -3 -23 -11 -23 -16 0 -5 -8 -9 -17
-9 -10 0 -29 -12 -42 -25 -13 -14 -28 -25 -35 -25 -44 0 -107 -75 -83 -99 7
-7 6 -15 -2 -24 -9 -12 -7 -16 15 -21 37 -10 51 8 23 28 -13 8 -21 18 -18 20
6 7 44 -27 52 -46 4 -12 -1 -25 -15 -38 -20 -18 -20 -20 -4 -20 10 0 29 11 42
25 28 30 44 32 37 5 -6 -24 12 -27 21 -4 8 20 50 14 54 -7 2 -12 -13 -24 -47
-40 -28 -13 -50 -30 -51 -37 0 -8 5 -9 18 -3 9 5 24 12 32 15 8 4 31 16 49 27
19 11 30 14 23 7 -9 -12 -6 -20 15 -39 22 -20 25 -21 19 -5 -5 16 -2 18 24 14
16 -3 30 -1 30 3 0 4 7 15 16 24 12 12 19 13 30 4 10 -8 14 -8 14 0 0 6 8 11
18 11 27 0 80 28 91 48 8 14 12 15 22 5 11 -11 10 -13 -2 -13 -8 0 -21 -9 -29
-20 -8 -11 -22 -20 -31 -20 -9 0 -22 -7 -29 -15 -11 -13 -11 -18 0 -28 10 -9
14 -9 17 1 4 10 8 10 19 1 11 -9 14 -8 14 2 1 10 5 8 15 -5 14 -19 15 -18 21
11 7 34 29 48 87 58 20 3 37 10 37 15 0 6 8 10 18 10 16 -1 16 -1 0 -14 -10
-7 -18 -18 -18 -24 0 -6 -7 -9 -16 -5 -11 4 -15 1 -13 -13 4 -32 -44 -134
-102 -214 -21 -30 -42 -63 -45 -72 -3 -9 -18 -31 -35 -49 l-30 -32 -47 40
c-43 37 -63 50 -142 93 -15 8 -35 23 -44 33 -10 9 -26 17 -37 17 -11 0 -50 20
-87 45 -37 25 -72 45 -79 45 -7 0 -36 15 -65 32 -101 62 -228 128 -247 128 -6
0 -11 6 -11 14 0 8 -9 18 -20 21 -22 7 -26 20 -10 30 6 4 5 13 -2 24 -15 25
-3 51 23 51 19 0 21 4 16 36 -4 21 -1 46 5 58 7 12 12 28 13 36 0 8 8 14 18
14 10 -1 17 5 17 15 0 9 9 22 20 29 12 7 20 8 20 2 0 -5 7 -10 16 -10 13 0 14
3 5 14 -19 22 7 31 29 11 18 -16 20 -16 26 -1 3 9 10 14 14 11 5 -3 11 -1 15
5 3 5 -2 10 -13 10 -31 0 -33 12 -6 27 40 20 57 17 48 -9 -6 -20 -5 -21 10 -6
22 22 21 23 -19 42 -39 19 -44 31 -16 39 14 3 18 11 14 26 -4 16 -1 21 16 21
11 0 21 5 21 10 0 6 12 10 26 10 15 0 33 8 40 18 12 15 15 15 24 2 5 -8 7 -23
4 -32 -6 -21 -3 -22 31 -6 27 12 33 27 13 29 -7 1 3 5 22 10 19 5 45 6 58 4
23 -6 27 1 13 23 -5 8 -17 11 -33 7 -19 -5 -27 -2 -32 11 -10 27 43 49 59 24
4 -6 12 -6 23 -1 30 16 57 24 74 22 19 -2 34 38 24 64 -4 11 -12 8 -38 -15
-18 -17 -38 -30 -45 -30 -7 0 -13 -4 -13 -10 0 -5 -4 -10 -10 -10 -34 0 21 48
106 93 35 18 43 32 22 40 -17 5 16 43 54 63 42 22 45 17 8 -15 -32 -27 -33
-30 -16 -37 14 -5 25 0 41 21 14 17 27 25 35 20 7 -4 15 -4 19 1 17 24 71 43
71 26z m-902 -1161 c10 -12 15 -13 18 -3 4 9 13 7 34 -8 15 -11 32 -20 37 -20
4 0 31 -21 58 -47 47 -43 184 -161 244 -209 56 -45 167 -117 191 -124 40 -10
38 -51 -4 -98 -20 -22 -36 -44 -36 -49 0 -6 -7 -17 -17 -24 -9 -8 -24 -31 -33
-51 -9 -20 -40 -64 -69 -97 -29 -33 -66 -81 -83 -108 -17 -26 -38 -55 -48 -63
-9 -8 -29 -34 -44 -57 -14 -24 -31 -43 -36 -43 -6 0 -10 -6 -10 -13 0 -22 -73
-94 -102 -101 -28 -6 -28 -6 -21 39 6 47 -7 61 -26 28 -16 -29 -25 -6 -26 59
0 58 2 62 25 68 l25 6 -25 8 c-15 4 -20 10 -12 13 17 7 15 23 -3 23 -8 0 -15
3 -16 8 -7 82 -3 126 13 136 10 6 18 21 18 34 0 16 5 22 18 20 13 -2 17 4 17
30 0 17 -4 31 -10 30 -5 -2 -10 -11 -9 -21 0 -10 -5 -16 -12 -13 -7 3 -18 -2
-24 -10 -10 -11 -10 -14 0 -14 6 0 10 -6 7 -12 -2 -7 -11 -12 -19 -10 -9 1
-21 -5 -28 -13 -14 -17 -40 -20 -40 -5 0 5 7 7 15 4 8 -4 15 -2 16 2 0 5 2 36
4 69 1 33 4 60 5 60 1 0 4 24 5 53 3 42 0 52 -13 52 -12 0 -11 5 8 25 13 14
20 25 15 25 -5 0 -4 5 3 12 17 17 15 28 -5 26 -35 -3 -51 2 -57 18 -4 11 -1
14 13 9 29 -9 47 20 33 57 -6 16 -8 36 -6 43 3 7 -4 18 -15 25 -12 6 -21 20
-21 32 0 15 3 19 11 11 5 -5 21 -8 35 -5 22 4 25 9 19 31 -3 14 -14 32 -23 40
-15 12 -15 12 6 6 17 -5 22 -2 22 13 0 34 -12 82 -20 77 -8 -5 -50 32 -50 45
0 13 32 0 48 -19z"/>
<path d="M10125 6891 c-64 -7 -97 -20 -332 -139 -84 -42 -175 -88 -202 -102
-28 -14 -60 -35 -71 -47 -11 -13 -28 -23 -38 -23 -21 -1 -52 -23 -52 -39 0 -6
-7 -11 -15 -11 -9 0 -34 -9 -57 -21 -37 -19 -39 -22 -25 -36 13 -14 19 -14 32
-3 12 10 19 10 27 2 7 -7 16 -12 20 -12 13 0 9 38 -4 42 -7 3 -6 7 5 11 11 4
17 1 17 -9 0 -11 6 -13 21 -9 14 5 25 1 34 -12 13 -17 14 -17 20 0 4 9 13 17
21 17 10 0 12 8 8 30 -7 33 9 41 24 14 7 -13 13 -14 30 -5 11 6 30 11 42 11
11 0 20 6 19 13 -3 23 1 37 11 37 6 0 10 -11 10 -24 l0 -24 48 25 c72 39 171
67 187 53 8 -7 15 -7 19 -1 4 5 24 4 54 -4 26 -8 67 -19 92 -25 48 -13 60 -24
204 -185 116 -131 174 -210 226 -310 76 -147 229 -342 350 -446 43 -37 72 -71
76 -87 3 -15 13 -54 22 -87 9 -33 17 -90 20 -126 l4 -66 65 -12 c54 -10 69
-10 87 2 24 16 61 7 81 -19 10 -15 14 -15 45 1 18 9 43 15 56 12 18 -3 35 7
69 41 25 25 44 50 42 56 -5 16 79 77 97 70 20 -8 33 20 41 91 4 33 12 66 19
74 6 8 10 47 8 99 -3 93 5 74 -137 308 -26 44 -74 95 -163 175 -70 62 -165
153 -212 203 -100 105 -227 233 -261 262 -13 11 -44 43 -69 71 -35 40 -54 53
-85 58 -22 4 -71 22 -110 41 -38 18 -97 41 -130 50 -69 18 -203 25 -290 15z"/>
<path d="M8432 6730 c-25 -23 -28 -37 -9 -43 6 -2 3 -3 -8 -1 -19 3 -85 -45
-85 -61 0 -4 -11 -16 -25 -27 -14 -11 -25 -26 -25 -34 0 -8 -5 -14 -12 -14
-16 0 -68 -51 -68 -67 0 -17 37 -36 45 -23 3 5 1 10 -4 10 -6 0 -11 5 -11 10
0 6 7 10 15 10 8 0 15 -4 15 -9 0 -5 7 -12 16 -15 11 -4 15 -2 11 8 -4 10 -1
13 9 9 7 -3 14 0 14 6 0 6 -6 11 -12 11 -7 0 -4 6 6 12 15 8 21 8 24 0 5 -17
22 -15 22 2 0 8 -7 16 -15 20 -8 3 -15 10 -15 16 0 7 6 8 19 0 18 -9 19 -8 11
20 -7 23 -5 30 6 30 8 0 14 -9 14 -20 0 -13 5 -18 15 -14 8 4 15 1 15 -4 0 -6
-7 -17 -15 -26 -22 -21 -18 -26 10 -13 25 12 35 50 15 62 -31 19 18 85 73 99
29 7 37 26 12 26 -18 0 -19 12 -3 28 22 22 -36 14 -60 -8z"/>
<path d="M8040 6270 c0 -5 -13 -7 -30 -4 -24 5 -35 1 -60 -24 -16 -17 -30 -35
-30 -41 0 -5 -9 -13 -20 -16 -11 -3 -20 -11 -20 -16 0 -6 -6 -16 -13 -24 -8
-7 -12 -26 -10 -42 4 -26 7 -28 48 -25 40 4 43 6 41 30 -3 28 -26 44 -26 18 0
-8 -4 -18 -10 -21 -5 -3 -9 9 -8 30 1 19 4 35 8 35 4 0 18 11 32 24 16 17 28
22 38 16 9 -5 19 -5 26 1 9 7 17 3 28 -12 8 -13 18 -20 22 -17 3 4 -1 17 -10
30 -9 12 -16 26 -16 30 0 14 22 9 34 -7 9 -13 15 -13 38 -3 32 15 34 21 13 38
-12 10 -15 10 -15 -4 0 -9 -7 -16 -15 -16 -8 0 -15 7 -15 15 0 8 -7 15 -15 15
-8 0 -15 -4 -15 -10z"/>
<path d="M3480 4186 c0 -9 -4 -16 -9 -16 -5 0 -11 -14 -15 -31 -3 -17 -9 -28
-14 -25 -4 2 -14 0 -22 -5 -13 -8 -13 -10 0 -19 12 -8 11 -10 -7 -10 -12 0
-29 -10 -38 -22 -15 -21 -14 -24 5 -37 11 -7 20 -22 20 -33 0 -15 -4 -18 -22
-12 -13 4 -26 11 -29 17 -9 14 -109 -91 -109 -114 0 -6 -9 -21 -19 -33 -69
-77 -91 -105 -89 -114 2 -5 -13 -25 -33 -43 -20 -19 -40 -44 -43 -56 -4 -12
-15 -25 -25 -28 -13 -4 -17 -12 -14 -25 4 -15 1 -19 -9 -15 -9 4 -38 -19 -76
-60 -35 -36 -70 -65 -81 -65 -11 0 -33 -11 -49 -25 -16 -14 -44 -25 -63 -27
-19 -1 -45 -10 -58 -20 -13 -10 -30 -18 -37 -18 -18 0 -18 -14 0 -29 7 -6 11
-22 9 -35 -4 -19 0 -25 21 -30 14 -3 26 -11 26 -17 0 -8 5 -7 15 1 8 7 22 10
30 6 9 -3 26 -1 38 6 48 24 57 28 75 28 10 0 22 3 26 7 3 4 12 8 20 9 7 1 31
13 53 27 23 14 43 24 46 21 6 -7 44 15 69 39 22 21 23 41 2 61 -14 15 -14 16
5 16 12 0 21 5 21 10 0 6 12 -1 27 -15 30 -27 55 -35 28 -9 -19 19 -14 40 9
38 10 -1 16 6 16 17 0 11 5 19 10 19 14 0 12 27 -2 33 -10 3 -10 9 0 26 8 15
9 21 1 21 -6 0 -8 7 -5 16 4 9 1 23 -6 31 -10 12 -9 14 7 11 28 -5 33 32 5 39
-21 6 -23 24 -2 31 7 2 12 -3 12 -12 0 -27 29 -18 45 14 9 17 14 34 12 38 -5
9 30 42 37 35 3 -3 1 -14 -5 -25 -6 -11 -7 -23 -3 -26 4 -4 9 -1 11 6 3 6 13
12 24 12 10 0 19 5 19 10 0 6 8 10 18 11 12 0 13 2 3 6 -32 13 -51 39 -51 71
0 25 5 35 20 39 11 3 20 14 20 24 0 11 6 19 14 19 19 0 46 -38 39 -56 -3 -9 2
-14 16 -14 16 0 21 6 21 24 0 14 -4 28 -10 31 -14 9 -12 41 3 54 11 8 18 6 33
-10 12 -13 15 -23 7 -27 -14 -10 -23 -74 -9 -69 6 2 18 17 26 35 8 17 21 32
28 32 6 0 12 5 12 10 0 6 -7 10 -16 10 -14 0 -14 2 1 16 10 10 13 24 9 36 -5
18 -3 20 20 16 34 -7 43 8 20 33 -21 24 -26 24 -55 0 -20 -16 -21 -21 -10 -35
11 -13 11 -19 1 -31 -21 -25 -40 1 -39 54 0 25 3 40 6 34 11 -30 23 -9 18 32
-5 43 -5 45 20 45 14 0 25 5 25 10 0 6 -4 10 -9 10 -5 0 -16 3 -25 6 -11 4
-16 1 -16 -10z"/>
<path d="M11474 3779 c20 -21 36 -47 36 -57 0 -22 117 -200 221 -334 73 -96
120 -164 149 -217 14 -26 38 -56 123 -157 20 -25 37 -54 37 -65 0 -11 7 -34
16 -52 15 -28 15 -43 4 -132 -6 -55 -17 -113 -22 -128 -8 -20 -7 -53 2 -117 7
-50 10 -114 6 -145 -4 -41 -3 -57 6 -59 7 -2 40 -9 73 -16 33 -7 69 -16 80
-21 11 -5 43 -11 70 -14 28 -2 62 -7 77 -11 19 -4 36 0 59 17 24 17 45 23 78
21 51 -2 88 17 170 89 51 46 91 98 91 120 0 6 17 48 39 92 21 45 46 107 55
137 17 54 17 57 -4 109 -11 30 -25 75 -31 100 -7 35 -23 61 -67 107 -31 34
-68 83 -81 110 -14 30 -45 66 -78 94 -30 25 -66 56 -81 70 -37 35 -78 60 -98
60 -16 0 -46 20 -117 80 -61 52 -157 106 -199 114 -21 4 -38 11 -38 16 0 5
-17 12 -37 16 -54 10 -113 41 -107 57 3 10 -4 14 -25 14 -17 0 -53 12 -81 27
-27 15 -73 34 -102 43 -29 8 -73 25 -98 38 -25 12 -71 25 -103 28 l-58 6 35
-40z"/>
<path d="M4853 3363 c-31 -45 -78 -160 -108 -263 -15 -52 -31 -99 -35 -105
-10 -13 -51 -148 -62 -202 -19 -96 -26 -129 -36 -158 -15 -43 -34 -125 -38
-160 -1 -16 -6 -43 -9 -60 -30 -137 -47 -241 -51 -300 -3 -38 -9 -86 -14 -105
-5 -19 -7 -107 -5 -194 4 -124 8 -164 21 -184 9 -13 14 -35 11 -50 -6 -29 15
-84 42 -109 10 -10 20 -27 23 -38 2 -11 12 -24 23 -30 12 -5 41 -30 65 -54 55
-52 112 -91 157 -103 21 -6 38 -19 45 -34 9 -20 17 -24 35 -19 17 4 23 1 23
-11 0 -10 8 -15 23 -13 12 1 35 -4 51 -11 25 -13 30 -12 42 4 12 16 17 17 43
6 18 -7 49 -10 78 -6 26 3 56 6 66 6 21 1 22 10 4 35 -9 11 -16 14 -20 7 -4
-5 -16 -8 -26 -5 -23 6 -17 33 8 33 9 0 22 5 28 11 5 5 34 12 63 15 30 2 64
11 76 19 13 8 32 15 42 15 11 0 25 7 33 16 11 13 7 15 -37 12 -33 -2 -48 -7
-46 -15 1 -8 -9 -13 -28 -13 l-30 0 32 30 c17 16 36 30 42 30 6 0 29 12 51 27
38 26 38 26 15 35 -16 6 -37 3 -67 -8 -56 -22 -67 -10 -24 25 35 29 29 52 -8
31 -26 -13 -31 -13 -31 3 0 7 23 24 50 36 28 12 50 26 50 31 0 15 -24 24 -28
12 -5 -16 -22 -15 -22 1 0 7 -12 13 -27 12 -21 0 -27 4 -25 18 3 18 -13 24
-22 8 -7 -10 -70 -20 -165 -26 -74 -4 -99 6 -151 60 l-35 36 0 107 c0 59 -4
113 -8 119 -4 7 -9 56 -9 109 -2 82 -5 98 -19 101 -10 3 -24 25 -32 50 -14 43
-14 46 4 50 41 11 22 113 -25 128 -19 6 -19 8 -3 12 12 3 16 11 12 24 -4 10
-3 19 2 19 4 0 14 9 20 20 16 25 1 70 -23 70 -10 0 -14 3 -10 8 4 4 19 7 32 7
13 0 23 5 21 10 -1 6 -9 10 -19 9 -13 0 -15 6 -10 35 3 20 14 42 24 49 16 12
17 15 3 28 -23 24 -19 54 7 54 17 0 19 3 10 12 -8 8 -15 8 -26 -1 -8 -7 -20
-10 -26 -6 -6 4 -17 1 -25 -5 -12 -10 -15 -9 -15 3 0 19 19 32 41 29 25 -4 44
24 29 43 -7 8 -19 15 -26 15 -10 0 -11 6 -4 25 6 17 5 35 -5 59 -14 33 -14 34
8 28 12 -3 25 -10 29 -15 4 -6 12 -4 22 6 9 9 12 18 7 21 -5 4 -12 0 -14 -6
-4 -9 -8 -10 -14 -2 -4 6 -15 14 -23 17 -12 4 -11 6 3 6 21 1 23 21 2 21 -12
0 -13 3 -3 19 6 10 18 17 25 14 15 -6 17 24 4 60 -13 34 9 113 27 95 7 -7 12
-8 12 -2 0 29 -64 48 -73 22 -2 -7 -3 -5 -1 5 1 9 -5 21 -13 25 -9 6 -13 18
-11 33 5 23 5 22 17 -8 13 -34 26 -42 33 -21 3 7 13 13 23 13 10 0 20 5 22 11
2 7 -6 10 -22 7 -23 -5 -25 -3 -19 25 5 26 3 31 -17 35 -20 4 -19 5 7 6 16 0
35 -4 42 -11 6 -6 15 -8 19 -4 4 4 2 11 -5 15 -7 4 -15 31 -19 59 -4 39 -10
52 -22 52 -10 0 -22 5 -28 11 -7 7 -16 2 -30 -18z"/>
<path d="M7275 3260 c-4 -6 -7 -44 -7 -86 0 -59 5 -85 25 -127 14 -29 27 -63
31 -77 5 -22 22 -46 78 -110 7 -8 18 -27 25 -42 7 -15 30 -39 52 -52 22 -14
46 -36 52 -48 16 -30 31 -41 109 -79 36 -17 74 -40 86 -51 11 -10 50 -27 85
-37 35 -11 82 -29 104 -40 21 -12 45 -21 52 -21 6 0 27 -9 45 -19 34 -20 344
-127 388 -134 14 -2 32 -7 40 -10 19 -8 139 -37 151 -37 5 0 9 7 9 15 0 18 5
18 30 5 11 -6 21 -6 24 -1 3 5 -8 14 -24 21 -16 7 -35 19 -41 27 -11 12 -8 13
17 7 16 -4 36 -10 44 -14 8 -4 24 -4 35 1 19 7 19 8 -1 8 -13 1 -24 9 -27 21
-3 13 -10 18 -21 14 -9 -3 -16 -2 -16 3 0 5 -16 17 -36 26 -29 14 -34 20 -24
32 8 9 17 11 28 6 53 -27 71 -33 83 -26 9 6 9 11 -3 19 -8 6 -16 15 -16 19 -2
10 -32 41 -32 32 0 -4 -18 8 -40 25 -22 17 -44 29 -50 25 -5 -3 -10 -2 -10 4
0 12 -78 48 -196 91 -49 18 -93 36 -99 40 -5 4 -46 19 -90 35 -44 15 -94 35
-111 45 -16 9 -46 20 -65 24 -19 3 -61 20 -94 36 -33 16 -66 30 -74 30 -30 0
-208 105 -261 155 -14 12 -35 26 -47 30 -13 3 -23 13 -23 21 0 11 -6 13 -19 9
-14 -4 -26 3 -45 28 -14 19 -26 41 -26 50 0 16 -10 21 -36 18 -5 0 -10 15 -11
34 -1 49 -31 83 -48 55z"/>
<path d="M5810 2731 c0 -6 8 -25 19 -44 10 -18 22 -47 25 -65 4 -17 16 -42 26
-55 10 -13 22 -37 26 -53 15 -63 152 -342 189 -384 7 -8 16 -25 20 -38 4 -13
26 -45 50 -72 24 -27 46 -59 50 -72 4 -13 19 -37 34 -55 14 -18 45 -56 68 -85
23 -29 80 -100 128 -158 47 -58 98 -120 113 -138 49 -61 220 -232 266 -267 50
-38 150 -101 234 -148 49 -27 233 -97 307 -117 41 -11 96 -31 119 -42 10 -5
45 -12 78 -14 32 -2 82 -13 111 -24 31 -12 78 -20 117 -21 36 0 90 -5 120 -10
81 -15 220 -28 345 -34 61 -2 153 -9 205 -15 218 -25 499 -21 790 11 47 5 95
9 108 9 12 -1 41 -1 65 -2 23 -1 71 5 107 12 36 7 72 12 80 12 78 1 315 29
337 41 46 25 125 54 181 67 42 10 69 26 130 79 42 36 94 74 114 84 49 23 102
107 100 161 -2 34 4 43 57 93 74 68 88 99 72 154 -7 22 -14 64 -17 92 -8 91
-19 162 -29 177 -31 51 -169 192 -260 263 -49 39 -103 84 -120 100 -16 16 -49
38 -72 49 -23 10 -48 26 -55 36 -13 17 -37 32 -89 59 -14 7 -34 22 -45 34 -38
43 -134 94 -134 71 0 -16 25 -62 34 -62 5 0 1 -9 -9 -20 -20 -22 -9 -29 -103
61 -17 16 -32 24 -34 18 -5 -14 -38 0 -38 17 0 13 -30 19 -74 15 -11 -1 -29 8
-41 19 l-21 20 -23 -24 c-14 -15 -20 -30 -16 -37 5 -7 4 -10 -2 -6 -6 4 -17 0
-24 -9 -10 -13 -10 -20 4 -44 31 -52 13 -69 -30 -28 l-23 21 0 -32 c0 -18 5
-41 10 -51 7 -13 7 -21 0 -25 -17 -11 -11 -59 13 -95 32 -49 121 -266 113
-279 -4 -5 -32 -19 -64 -31 -31 -11 -73 -29 -92 -39 -19 -11 -53 -23 -75 -27
-47 -8 -117 -37 -154 -63 -34 -24 -236 -81 -287 -81 -21 0 -64 -7 -94 -15
-126 -34 -684 -48 -995 -24 -88 6 -180 13 -205 14 -25 1 -58 8 -73 14 -16 6
-52 11 -80 11 -33 0 -66 7 -89 19 -19 11 -38 18 -41 15 -9 -9 -142 39 -192 70
-27 17 -62 37 -77 44 -16 6 -28 16 -28 21 0 5 -24 23 -52 40 -29 17 -87 58
-128 91 -41 33 -93 74 -115 91 -22 17 -81 71 -132 120 -51 49 -96 89 -101 89
-4 0 -30 21 -57 47 -27 26 -55 48 -62 48 -6 0 -19 9 -27 20 -13 18 -15 18 -21
3 -7 -17 -51 23 -184 168 -26 28 -57 57 -70 63 -12 7 -31 21 -42 32 -10 10
-25 16 -34 13 -10 -4 -15 0 -15 10 0 9 -7 19 -15 22 -8 4 -15 11 -15 18 0 9
-26 26 -82 54 -5 2 -8 -1 -8 -7z"/>
</g>
</svg>
